<?xml version="1.0" encoding="UTF-8"?>
<svg id="Capa_1" xmlns="http://www.w3.org/2000/svg" version="1.1" viewBox="0 0 120 110">
  <!-- Generator: Adobe Illustrator 29.0.0, SVG Export Plug-In . SVG Version: 2.1.0 Build 186)  -->
  <defs>
    <style>
      .st0 {
        fill: #fff;
      }

      .st1 {
        fill: none;
        stroke: #fff;
        stroke-linecap: round;
        stroke-linejoin: round;
        stroke-width: 3px;
      }
    </style>
  </defs>
  <path class="st1" d="M55.3,24.3s-.8-8.5-4.9-8.9-12.9,14.4-12.9,14.4h-2.6c0,.1-7.2-15.1-12.4-15.9s-1.2,21.9-1.2,21.9c0,0-3.7,1.9-2.8,8.5-.5,1.8-12.6,8.3-14.6,11.9s10.7,10.4,10.7,10.4c0,0,16.1-4,18-4.8,2.5,1.3,4.4,2,4.4,3.5s-1.4,11.1-.1,12.2"/>
  <path class="st0" d="M92.9,70.2c7.1-4.2,11.5-11.8,11.6-20.1,0-13.3-11.6-24.1-25.9-24.1s-25.9,10.8-25.9,24.1c.1,8.3,4.5,15.9,11.6,20.1-15.8,5.4-27.1,19.6-27.1,36.2h6.9c0-17.7,15.5-32.2,34.5-32.2s34.5,14.4,34.5,32.2h6.9c0-16.6-11.3-30.7-27.1-36.2ZM78.6,67.8c-10.5,0-19-7.9-19-17.7s8.5-17.7,19-17.7,19,7.9,19,17.7-8.5,17.7-19,17.7Z"/>
</svg>