<?xml version="1.0" encoding="UTF-8"?>
<svg id="Capa_1" xmlns="http://www.w3.org/2000/svg" version="1.1" viewBox="0 0 120 110">
  <!-- Generator: Adobe Illustrator 29.0.0, SVG Export Plug-In . SVG Version: 2.1.0 Build 186)  -->
  <defs>
    <style>
      .st0 {
        fill: #fff;
      }
    </style>
  </defs>
  <path class="st0" d="M64.1,99.8c23.5-12.8,36.9-29.9,40-50.8,1.4-9.5.5-19.1-2.5-28.2-.5-1-1.2-1.8-2.2-2.2s-2.2-.3-3.2.2c-15,7.5-25.9,17.8-32.5,30.5l-2.5,4.8-2.7-4.6c-7.3-12.5-18.8-22.2-34.1-28.9-2-.8-4.4,0-5.2,2.2,0,.2,0,.3-.2.5-.2.5-13.1,51.4,41.3,76.7l.3.2h.6l.4.2h.9c.3,0,.5,0,.8-.2l.8-.2ZM65.3,67.8v-.2c3.2-15.6,12.1-28.2,26.5-37.4l3.8-2.5.7,4.5c1.9,12.3.9,35.9-27.5,55.4l-4.2,2.9-.4-5.1c-.5-5.9,0-11.7,1.1-17.5h0ZM57.3,68.4c-.8,4.9-1.1,10-.9,15l.2,5.9-4.9-3.2c-24.5-16.7-27.2-39.4-26.5-51.5l.2-4.9,4.2,2.5c14.3,8.3,23.6,20.1,27.6,35.1l.2.6-.2.6h0Z"/>
</svg>